<?xml version="1.0" standalone="no"?>
<!DOCTYPE svg PUBLIC "-//W3C//DTD SVG 20010904//EN"
 "http://www.w3.org/TR/2001/REC-SVG-20010904/DTD/svg10.dtd">
<svg version="1.0" xmlns="http://www.w3.org/2000/svg"
 width="303.000000pt" height="203.000000pt" viewBox="0 0 303.000000 203.000000"
 preserveAspectRatio="xMidYMid meet">
<metadata>
Created by potrace 1.15, written by Peter Selinger 2001-2017
</metadata>
<g transform="translate(0.000000,203.000000) scale(0.100000,-0.100000)"
fill="#000000" stroke="none">
<path d="M1273 1951 c-67 -21 -183 -79 -183 -92 0 -24 26 -59 54 -71 35 -15
158 -17 261 -4 l71 8 27 -41 c15 -23 30 -62 34 -87 7 -54 24 -74 64 -74 20 0
29 -5 29 -17 0 -26 -64 -133 -115 -192 -96 -112 -165 -150 -267 -151 -38 0
-68 -3 -68 -8 0 -16 32 -52 45 -52 18 0 30 -24 39 -72 4 -20 15 -47 26 -60
l19 -23 66 34 c81 42 166 117 193 172 17 34 20 53 15 108 l-6 67 48 39 c70 57
89 106 90 230 0 95 -2 104 -35 170 -32 64 -40 73 -94 100 -52 26 -71 30 -155
32 -70 2 -113 -3 -158 -16z"/>
<path d="M2606 1339 c-3 -24 -7 -74 -10 -111 -7 -88 -31 -179 -67 -252 -16
-33 -28 -65 -25 -72 9 -24 41 -7 66 37 63 108 84 212 69 346 -10 91 -25 115
-33 52z"/>
<path d="M1839 1309 c-14 -52 -14 -150 -1 -176 6 -10 24 -48 41 -85 19 -40 47
-80 70 -100 43 -37 162 -110 169 -103 2 2 -5 17 -16 32 -14 20 -22 53 -27 110
-9 94 3 155 46 252 16 35 27 66 25 68 -2 3 -9 -4 -15 -15 -21 -39 -74 -62
-142 -62 -87 0 -113 15 -120 68 -8 58 -16 61 -30 11z"/>
<path d="M1085 1095 c-22 -13 -48 -25 -57 -25 -11 0 -20 -11 -24 -27 -4 -16
-13 -38 -21 -49 -10 -16 -13 -52 -11 -140 3 -100 6 -119 19 -122 15 -3 15 2 3
55 -21 91 -19 130 11 149 17 11 25 25 25 45 0 25 7 33 45 51 30 15 48 31 55
51 16 47 13 48 -45 12z"/>
<path d="M2709 713 c12 -17 21 -42 21 -56 0 -23 -3 -25 -85 -31 -47 -4 -100
-13 -118 -21 l-32 -13 3 -104 c4 -108 -21 -288 -40 -288 -5 0 -6 -5 -3 -11 4
-6 4 -26 1 -45 -5 -25 -12 -34 -26 -34 -15 0 -20 7 -20 25 0 15 -20 52 -49 90
-46 60 -135 210 -177 300 -14 28 -28 41 -49 47 -31 8 -135 -8 -135 -21 0 -4
70 -91 155 -193 85 -102 155 -193 155 -202 0 -44 -46 -4 -201 174 -135 157
-168 189 -184 184 -11 -3 -35 -8 -52 -11 l-33 -5 0 50 c0 82 -7 89 -45 47 -18
-19 -36 -42 -39 -50 -9 -23 -43 -18 -50 8 -6 22 -6 22 -22 2 -8 -11 -19 -26
-23 -33 -5 -9 -22 -11 -64 -6 -50 6 -56 9 -59 32 -3 22 -16 8 -102 -101 -63
-81 -106 -127 -118 -127 -33 0 -19 29 72 150 49 66 90 123 90 129 0 8 -64 51
-76 51 -2 0 -4 -6 -4 -13 0 -18 -112 -261 -122 -265 -4 -2 -8 -10 -8 -18 0
-17 -34 -19 -48 -1 -9 10 -61 187 -76 258 -5 23 -10 25 -56 25 l-50 -1 -2
-267 c-1 -148 -2 -276 -2 -285 -1 -9 4 -18 10 -20 7 -2 10 5 7 20 -4 23 7 31
132 97 l137 72 124 -7 c114 -6 124 -9 124 -27 0 -56 56 -111 156 -154 38 -16
71 -32 72 -36 2 -5 156 -8 342 -8 297 0 339 2 344 16 3 8 10 13 15 9 5 -3 12
-1 16 5 4 6 10 8 15 5 5 -3 11 -1 15 5 4 6 11 8 16 5 5 -4 9 -1 9 4 0 6 5 11
12 11 21 0 134 58 167 85 47 41 58 70 65 180 5 81 3 114 -12 175 -21 81 -57
161 -92 200 l-22 25 21 -32z"/>
<path d="M574 426 c-18 -13 -18 -17 -4 -48 10 -22 15 -67 15 -138 l0 -104 27
-10 c15 -5 30 -8 32 -5 2 2 -1 44 -7 93 -10 87 -10 89 13 106 28 21 22 59 -15
96 -28 28 -34 29 -61 10z"/>
</g>
</svg>
